<svg width="772" height="125" viewBox="0 0 772 125" fill="none" xmlns="http://www.w3.org/2000/svg">
<path d="M414.18 1.2595C447.91 -2.4215 478.28 21.833 482.155 55.544C486.025 89.255 461.94 119.76 428.25 123.82C394.295 127.915 363.489 103.595 359.588 69.615C355.686 35.6365 380.177 4.97 414.18 1.2595Z" fill="white"/>
<path d="M417.94 27.227C425.845 27.075 433.01 27.8985 439.695 32.6055C447.5 38.105 452.345 46.491 453.86 55.856C455.47 65.855 453.645 76.84 447.565 85.1C441.83 92.89 433.995 96.52 424.64 97.97C415.115 98.31 406.405 96.66 399.04 90.2C391.885 83.93 388.02 74.565 387.415 65.195C386.765 55.1115 388.885 45.209 395.735 37.495C401.64 30.8515 409.175 27.7185 417.94 27.227Z" fill="#007BFF"/>
<path d="M571.705 3.06948C577.95 2.70948 587.92 1.82849 593.805 3.53899C595.22 3.94949 595.91 4.73998 596.74 5.92998C599.785 10.267 601.955 15.582 604.42 20.278C611.26 33.3165 617.575 46.725 624.805 59.54C631.46 48.5165 637.095 36.475 642.92 24.9845C645.51 19.866 649.865 8.81848 653.65 5.11498C657.14 1.70298 666.78 2.87998 671.42 2.94048C673.665 2.96948 676.615 2.82999 678.255 4.51049C678.825 9.69949 678.545 15.028 678.545 20.2425L678.55 47.0675C678.555 69.455 679.225 92.065 678.465 114.43C678.405 116.145 678.47 120.21 677.445 121.495C675.48 122.265 673.47 122.44 671.38 122.49C668.065 122.57 654.8 123.575 652.785 121.305C650.285 118.485 651.46 101.83 651.5 97.75C651.48 84.3 651.705 70.86 651.58 57.4105C648.815 63.49 634.765 92.81 630.4 96.33C627.46 98.705 620.125 97.345 616.535 96.935C608.92 83.84 602.955 69.82 595.435 56.702C595.505 65.08 596.77 117.795 594.675 120.95C594.135 121.76 593.24 122.25 592.29 122.405C588.525 123.02 572.72 123.095 569.785 121.2C569.16 119.565 569.135 117.645 569.09 115.905C568.87 107.695 569.2 99.42 569.23 91.205L569.16 49.366C569.175 36.421 568.245 21.355 569.08 8.78948C569.27 5.90798 569.585 4.93148 571.705 3.06948Z" fill="white"/>
<path d="M2.04346 3.23651C8.66496 3.19101 17.345 2.132 23.765 3.785C26.111 4.389 27.3165 5.9255 28.618 7.8475C32.1245 13.025 34.6085 19.279 37.466 24.8705C43.548 36.7715 49.639 48.7535 56.11 60.445L75.3195 23.3175C78.0695 17.9925 80.4115 12.2615 83.496 7.13351C84.346 5.72001 85.38 4.609 86.5895 3.5C94.047 2.9995 101.691 3.37699 109.16 3.49899C109.61 23.748 109.131 44.067 109.217 64.325C109.256 73.44 110.546 115.47 108.612 121.59C107.089 122.26 105.573 122.405 103.916 122.475C101.384 122.58 86.855 123.235 85.6985 121.935C82.565 118.41 84.2475 95.425 84.323 89.84C84.4465 77.925 84.506 66.01 84.5025 54.0945C80.316 63.22 66.272 93.73 60.246 99.895C56.642 100.015 53.081 99.945 49.478 99.8C46.209 94.49 43.5375 88.655 40.712 83.09C35.728 73.325 30.8265 63.515 26.0085 53.668C26.134 76.465 27.0975 99.685 25.9295 122.425C20.498 122.785 5.97548 123.585 1.43448 121.54C0.689481 119.485 0.672971 117.04 0.605471 114.87C-0.183029 89.51 0.60748 63.875 0.74048 38.491L0.817964 16.168C0.826464 12.148 0.493462 7.751 1.12796 3.7905L2.04346 3.23651Z" fill="white"/>
<path d="M274.894 3.10902C290.226 2.99702 316.917 1.071 330.599 6.4665C338.803 9.7015 345.43 15.8225 348.886 23.989C352.919 33.52 352.571 46.4775 348.609 55.978C345.042 64.53 338.788 69.425 330.364 72.905C337.725 82.88 344.712 93.085 351.718 103.31C354.954 108.035 359.128 113.015 361.479 118.23C362.088 119.58 362.245 119.99 361.712 121.385C358.296 123.65 340.143 122.41 335.419 122.39C335.106 122.335 334.791 122.29 334.48 122.225C333.532 122.025 332.833 121.685 332.161 120.96C328.424 116.935 325.711 111.255 322.822 106.575C316.984 96.985 311.024 87.47 304.942 78.03L297.613 78.08C297.341 86.18 298.782 115.65 296.431 120.94C295.651 121.53 295.008 121.83 294.051 121.985C290.062 122.645 275.276 122.785 272.326 120.685C270.936 115.72 270.77 12.592 271.696 5.24052C272.686 3.91102 273.398 3.76202 274.894 3.10902Z" fill="white"/>
<path d="M297.465 26.514C304.002 26.453 313.769 25.174 319.349 29.198C322.354 31.365 323.584 34.757 324.068 38.304C324.827 43.864 324.031 47.8685 320.623 52.323C314.123 57.531 305.338 56.5245 297.5 56.3695L297.465 26.514Z" fill="#007BFF"/>
<path d="M214.69 2.18649C216.685 1.93499 218.698 1.9105 220.706 1.872C235.919 1.5805 251.607 6.8625 262.676 17.453C260.485 23.738 252.917 34.45 248.103 39.0505C242.031 35.5215 237.482 30.7865 230.437 28.9655C222.591 26.938 213.786 27.4235 206.786 31.78C199.283 36.45 194.061 44.4995 191.994 53.0065C189.545 63.09 190.904 74.685 196.435 83.56C200.536 90.14 206.832 95.07 214.491 96.765C229.01 99.97 236.445 93.145 247.872 85.975C249.469 87.335 250.865 88.745 252.252 90.315C255.201 93.74 261.27 99.9 261.747 104.42C261.934 106.2 261.317 107.72 260.211 109.09C254.353 116.365 237.896 122.075 228.7 123.22C213.33 125.135 197.675 121.49 185.43 111.82C172.844 101.875 165.793 86.865 163.937 71.175C161.971 54.5545 165.754 36.43 176.282 23.1425C185.996 10.8815 199.208 3.88649 214.69 2.18649Z" fill="#1E1E1E"/>
<path d="M731.825 1.70801C745.15 0.874506 756.705 6.01849 767.84 12.757C765.905 18.3655 762.085 28.554 757.215 32.0805C756.65 32.4875 756.12 33.0135 755.39 32.9195C752.01 32.4845 744.5 28.3425 738.79 27.3805C734.155 26.599 726.375 25.89 722.5 28.897C720.705 30.291 719.865 32.3885 719.585 34.5925C719.235 37.397 719.765 40.162 721.84 42.213C731.09 51.3645 753.695 52.458 765 66.96C770.65 74.21 772.02 84.285 770.725 93.19C769.335 102.76 765.18 110.34 757.36 116.07C746.595 123.96 732.855 124.91 720.01 122.91C708.22 120.935 695.44 115.785 686.875 107.225C690.32 100.07 695.33 93.475 699.805 86.94C710.275 93.04 719.305 99.17 731.96 98.5C735.945 98.285 740.02 97.155 742.665 93.96C744.33 91.945 744.73 89.32 744.385 86.785C744 83.98 742.345 81.665 740.185 79.915C731.545 72.91 714.565 70.405 704.115 61.86C697.975 56.8395 694.195 49.8075 693.51 41.9025C692.69 32.486 694.595 22.9095 700.805 15.544C708.665 6.2105 720.065 2.68501 731.825 1.70801Z" fill="white"/>
<path d="M497.49 3.1115C502.3 3.0215 514.75 1.46899 518.485 4.55599C520.645 11.4555 519.375 32.724 519.34 40.8055L519.245 97.11C526.955 97.215 551.08 96.3 556.81 97.96C557.75 98.235 558.36 98.48 558.78 99.405C559.74 101.535 560.155 118.39 558.985 120.51C558.26 121.83 557.18 121.93 555.88 122.35L517.4 122.425C510.7 122.44 502.705 123.255 496.18 121.91C494.825 121.63 493.845 121.56 493.075 120.39C492.49 113.41 492.78 106.32 492.805 99.32L492.925 65.77L492.915 27.736C492.895 20.971 492.595 14.0975 492.935 7.34548C492.985 6.42398 493.205 5.82 493.58 4.993C494.695 3.7925 495.975 3.5475 497.49 3.1115Z" fill="white"/>
<path d="M132.045 3.25202C138.938 3.17702 145.991 2.79 152.851 3.5325C153.309 11.2735 152.994 19.2025 152.995 26.9615L152.863 74.255C152.845 82.87 153.704 116.15 152.242 121.44C150.945 122.48 150.253 122.335 148.625 122.47C143.795 122.495 131.645 123.485 127.764 121.57C125.922 115.595 127.06 89.38 127.071 81.315L127.047 3.49152L132.045 3.25202Z" fill="white"/>
</svg>
